# xmcd
#
# Track frame offsets: 
#        150
#        20754
#        41059
#        69003
#        87079
#        104188
#        126784
#        139378
#        162005
#        190667
#        210983
#        229692
#
# Disc length: 3437 seconds
#
# Revision: 2
# Processed by: cddbd v1.5.2PL0 Copyright (c) Steve Scherf et al.
# Submitted via: ExactAudioCopy v0.99pb4
#
DISCID=9f0d6b0c
DTITLE=Various Artist - Quiet Days
DYEAR=2001
DGENRE=New Age
TTITLE0=2002 - The Calling
TTITLE1=Kevin Kern - Pastel Reflections
TTITLE2=Hilary Stagg - Pleasant Dreams
TTITLE3=Michael Hoppe - So Far Away
TTITLE4=Tim Wheater - Dark Falls the Night
TTITLE5=Paul Machlis - Love's Story
TTITLE6=Hilary Stagg - Pachelbel Canon in D
TTITLE7=Bernard L'Hoir - Quiet Days
TTITLE8=2002 - Realms of Splendor
TTITLE9=Michael Hoppe - Eventide
TTITLE10=Kevin Kern - After the Rain
TTITLE11=Hilary Stagg - Reflections of Love
EXTD=YEAR: 2001
EXTT0=
EXTT1=
EXTT2=
EXTT3=
EXTT4=
EXTT5=
EXTT6=
EXTT7=
EXTT8=
EXTT9=
EXTT10=
EXTT11=
PLAYORDER=
